<?xml version="1.0" encoding="UTF-8"?><svg xmlns="http://www.w3.org/2000/svg" version="1.1" viewBox="161 106 288 353" width="288" height="353" shape-rendering="geometricPrecision"><defs><linearGradient id="outerGrad" x1="163" y1="456" x2="446" y2="108" gradientUnits="userSpaceOnUse"><stop offset="0%" stop-color="#0047B7"/><stop offset="55%" stop-color="#008DFF"/><stop offset="100%" stop-color="#19D7FF"/></linearGradient><linearGradient id="doorGrad" x1="280.5" y1="362" x2="322.5" y2="279" gradientUnits="userSpaceOnUse"><stop offset="0%" stop-color="#0FADE5"/><stop offset="100%" stop-color="#18D7FF"/></linearGradient></defs><path fill="url(#outerGrad)" d="M382 456.5L309.5 456Q309 449 310.5 444Q313 438 318 435.5L324 432.5L379 431.5Q383 429.5 385.5 423L385.5 400L405.5 380L351 418.5L343 420.5Q338 420.5 335 419.5Q327 416 323.5 409L324 404.5L346.5 387L354.5 371L376 353.5L397.5 332L398.5 233L394.5 221L389 215.5L300.5 163L301 107.5L306 107.5L343 129.5L344 113.5L366 113.5L367.5 143L435 182.5Q440 186 442.5 191L446.5 201L445.5 392Q445 406 435.5 418Q425.5 434 404 449.5Q394 455 382 456.5Z"/><path fill="url(#outerGrad)" d="M306 456.5L297 453.5L183 387.5Q171.5 381 165.5 371Q162.5 366 162.5 361L163.5 167Q166 154 172.5 146Q184 129 201 117.5Q209 112 221 108.5L297.5 108L294.5 121Q292 126.5 285 129.5L278 131.5L233.5 131.5Q225.7 131.5 225.7 139.3L225.7 159L212.6 177.6L268 142.8L272 142.5Q278.5 143.5 282.5 152L258.5 174L248.5 195L209.5 232L209.5 328Q210 334.5 216 339.5L306.5 393L306 456.5Z"/><path fill="url(#doorGrad)" d="M280.5 362L280.5 300A21 21 0 0 1 322.5 300L322.5 362Z"/><rect x="230" y="222" width="20" height="20" fill="#14CFFF"/><rect x="254" y="222" width="20" height="20" fill="#14CFFF"/><rect x="329" y="222" width="20" height="20" fill="#14CFFF"/><rect x="353" y="222" width="20" height="20" fill="#14CFFF"/><rect x="230" y="245" width="20" height="20" fill="#14CFFF"/><rect x="254" y="245" width="20" height="20" fill="#14CFFF"/><rect x="329" y="245" width="20" height="20" fill="#14CFFF"/><rect x="353" y="245" width="20" height="20" fill="#14CFFF"/></svg>